<svg xmlns="http://www.w3.org/2000/svg" viewBox="0 0 512 512"><path d="M307.18,406.51l-40-104.67-9.8-31.36H257l-9.41,31.36L211.25,400c-3.92,9.8-12.16,19.6-23.92,19.6-7.44,0-14.5-5.09-14.5-12.93a12.63,12.63,0,0,1,9.8-12.55,6.27,6.27,0,0,0,5.1-4.7l55.17-148.3c2.35-6.66,8.23-9.8,14.5-9.8s12.15,3.14,14.5,9.8l88.2,236.38a6.27,6.27,0,0,0,5.1,4.7,12.64,12.64,0,0,1,9.8,12.55c0,7.84-7.06,12.93-14.5,12.93-11.76,0-20-9.8-23.92-19.6L315.81,431.6l-8.63-25.09" fill="#294145"/><path d="M256,490.5A234.5,234.5,0,0,1,90.18,90.18,234.53,234.53,0,0,1,459.49,372.62a236,236,0,0,1-81.68,83.79,10.5,10.5,0,1,1-10.92-17.93A213.33,213.33,0,0,0,469.5,256,213.5,213.5,0,0,0,105,105,213.5,213.5,0,0,0,256,469.5a214.38,214.38,0,0,0,47.3-5.27,10.5,10.5,0,1,1,4.63,20.49A236.24,236.24,0,0,1,256,490.5Z" fill="#294145"/></svg>